<svg width="13" height="13" xmlns="http://www.w3.org/2000/svg"><g fill="#555" fill-rule="nonzero"><path d="M6.515 12.967c.681 0 1.322-.266 1.804-.748l3.923-3.923a2.555 2.555 0 0 0 0-3.608L8.319.764A2.535 2.535 0 0 0 6.515.017c-.681 0-1.322.266-1.804.747L.788 4.688a2.555 2.555 0 0 0 0 3.608l3.923 3.923a2.535 2.535 0 0 0 1.804.748Zm-.002-6.84c-.418 0-.787.34-.787.756v3.888a.354.354 0 0 1-.353.352.351.351 0 0 1-.249-.103L1.576 7.507a1.437 1.437 0 0 1 0-2.03L5.5 1.552c.271-.271.632-.42 1.016-.42.383 0 .743.149 1.015.42l3.923 3.923c.56.56.56 1.472 0 2.031L7.907 11.02a.351.351 0 0 1-.5 0 .352.352 0 0 1-.103-.25V6.884c0-.416-.37-.755-.787-.755h-.004Z"/><path d="M6.515 2.78a1.143 1.143 0 1 0 0 2.287 1.143 1.143 0 0 0 0-2.287Z"/></g></svg>